<svg width="28" height="20" viewBox="0 0 28 20" fill="none" xmlns="http://www.w3.org/2000/svg">
<path d="M20.1 10C20.1 6.19952 18.1185 2.8671 15.1467 1.02373C16.1028 0.684404 17.13 0.499999 18.2 0.499999C23.3268 0.499999 27.5 4.74372 27.5 10C27.5 15.2563 23.3268 19.5 18.2 19.5C17.13 19.5 16.1028 19.3156 15.1467 18.9763C18.1185 17.1329 20.1 13.8005 20.1 10ZM7.9 10C7.9 13.8005 9.88147 17.1329 12.8534 18.9763C11.8973 19.3156 10.87 19.5 9.8 19.5C4.67323 19.5 0.5 15.2563 0.5 10C0.499999 4.74372 4.67323 0.5 9.8 0.5C10.87 0.5 11.8972 0.684404 12.8533 1.02373C9.88147 2.8671 7.9 6.19952 7.9 10Z" stroke="#0E071E"/>
</svg>
